<?xml version="1.0" encoding="utf-8"?>
<!-- Svg Vector Icons : http://www.onlinewebfonts.com/icon -->
<!DOCTYPE svg PUBLIC "-//W3C//DTD SVG 1.1//EN" "http://www.w3.org/Graphics/SVG/1.1/DTD/svg11.dtd">
<svg version="1.1" xmlns="http://www.w3.org/2000/svg" xmlns:xlink="http://www.w3.org/1999/xlink" x="0px" y="0px" viewBox="0 0 256 256" enable-background="new 0 0 256 256" xml:space="preserve">
<metadata> Svg Vector Icons : http://www.onlinewebfonts.com/icon </metadata>
<g><g><g><path fill="#000000" d="M119,44c-5.3,1.4-8.8,2.9-13.4,5.9c-23.2,15.4-28.8,51-11.7,74.9c3,4.3,9.2,10,13.5,12.6c2,1.2,5.7,2.9,8.2,3.7c3.8,1.3,5.4,1.6,10.9,1.8c7.9,0.3,12.8-0.8,19.7-4.3c12.7-6.4,21.8-19,25.1-34.9c1.1-5.3,1.1-16,0-21.3c-4.3-20.3-17.6-35-35.1-38.8C131.5,42.7,123.4,42.8,119,44z"/><path fill="#000000" d="M44,76.5c-8.9,2.9-15,12-15,22.4c0,9.2,4.9,17.6,12.6,21.3c2.8,1.3,3.6,1.5,7.9,1.5c5.9,0,8.4-1,12.6-5c5.2-4.9,7.4-10.3,7.4-17.8c0-7.3-1.8-12.2-6.5-17c-3.7-3.9-7.7-5.7-13-5.9C47.7,75.9,45.2,76.1,44,76.5z"/><path fill="#000000" d="M200.9,76.7c-4.9,1.7-8.1,4.5-11.1,9.5c-4.4,7.3-4.4,17.9,0,25.3c2.6,4.3,4.6,6.1,8.9,8.3c3.6,1.7,4.2,1.9,8.5,1.9c4.1,0,5-0.2,7.5-1.4c6.3-3.1,11.3-10.4,12.3-17.7c1.4-10.4-3.6-20.7-12.2-25C210.8,75.6,204.9,75.3,200.9,76.7z"/><path fill="#000000" d="M25.6,129.7c-6.2,3.4-11.8,6.7-12.5,7.3c-1.9,1.7-3.2,4.7-3.2,7.2c0,3.3,2.3,7.5,4.9,8.9c2.1,1.1,2.3,1.2,23.4,1.2h21.4l14.4-7.7c7.9-4.3,14.4-7.9,14.4-8.1c0-0.2-6.2-3.6-13.6-7.6l-13.6-7.3l-2.2,1c-5.3,2.5-11.4,2.8-16.9,0.8c-1.9-0.7-3.9-1.3-4.4-1.5C37.3,123.6,31.8,126.3,25.6,129.7z"/><path fill="#000000" d="M181.4,130.7c-7.1,3.8-13.2,7.2-13.4,7.5c-0.3,0.3,5.6,3.7,14,8.3l14.6,7.8h21c13.7,0,21.6-0.2,22.5-0.6c5-1.9,7.5-9.1,4.9-14.2c-1.4-2.7-1.7-2.9-15-10l-11.1-6l-3.3,1.3c-2.3,1-4.6,1.4-7.6,1.6c-3.8,0.3-4.9,0.1-8.2-1.1c-2.1-0.8-4.2-1.4-4.6-1.5S188.5,126.8,181.4,130.7z"/><path fill="#000000" d="M77.4,159.7c-17,9.2-25.9,14.3-27.7,15.8c-1.9,1.6-3.2,3.5-4.6,6.3c-1.9,3.8-1.9,4.1-1.9,9.6c0,5.5,0.1,5.8,1.9,9.6c2.3,4.6,5.9,8.3,10.5,10.5l2.9,1.4h69.5h69.5l3.4-1.6c11-5.2,15.5-18.3,10.3-29.6c-2.8-6-4.1-6.8-32-21.8l-25.4-13.7l-2.9,1.5c-13.9,7-30.9,7.2-44.4,0.5l-4-2L77.4,159.7z"/></g></g></g>
</svg>